<svg width="1285" height="926" viewBox="0 0 1285 926" fill="none" xmlns="http://www.w3.org/2000/svg">
  <path d="M508.667 409.25H499.333C498.597 409.25 498 409.922 498 410.75V416C498 416.828 498.597 417.5 499.333 417.5H508.667C509.403 417.5 510 416.828 510 416V410.75C510 409.922 509.403 409.25 508.667 409.25Z" stroke="#2A4365" stroke-width="2" stroke-linecap="round" stroke-linejoin="round"/>
  <path d="M500.667 409.25V406.25C500.667 405.255 501.018 404.302 501.643 403.598C502.268 402.895 503.116 402.5 504 402.5C504.884 402.5 505.732 402.895 506.357 403.598C506.982 404.302 507.333 405.255 507.333 406.25V409.25" stroke="#2A4365" stroke-width="2" stroke-linecap="round" stroke-linejoin="round"/>
</svg>
